HIERARCHY
ROOT root
{
	OFFSET	0	13.1	24.9
	CHANNELS 6  Xposition Yposition Zposition Xrotation Yrotation Zrotation
	JOINT spine_1
	{
		OFFSET	0	9.99999	0
		CHANNELS 3  Xrotation Yrotation Zrotation
		JOINT spine_2
		{
			OFFSET	0	112	-10
			CHANNELS 3  Xrotation Yrotation Zrotation
			JOINT spine_3
			{
				OFFSET	0	206.5	19.3
				CHANNELS 3  Xrotation Yrotation Zrotation
				JOINT spine_4
				{
					OFFSET	0	110.4	14.6
					CHANNELS 3  Xrotation Yrotation Zrotation
					JOINT neck_1
					{
						OFFSET	0	71.8	-50.3
						CHANNELS 3  Xrotation Yrotation Zrotation
						JOINT neck_2
						{
							OFFSET	0	86.2	-25.8
							CHANNELS 3  Xrotation Yrotation Zrotation
							JOINT head_ee
							{
								OFFSET	0	179.8	-8.7
								CHANNELS 3  Xrotation Yrotation Zrotation
								End Site
								{
									OFFSET	1	0	0
								}
							}
						}
					}
					JOINT left_clavicle
					{
						OFFSET	-43.2	22.4	-70.8
						CHANNELS 3  Xrotation Yrotation Zrotation
						JOINT left_shoulder
						{
							OFFSET	-93.9	-5.79999	48.7
							CHANNELS 3  Xrotation Yrotation Zrotation
							JOINT left_elbow
							{
								OFFSET	-291.4	-30.8	15.2
								CHANNELS 3  Xrotation Yrotation Zrotation
								JOINT left_lowarm_twist
								{
									OFFSET	-110.7	-3.89999	13.6
									CHANNELS 3  Xrotation Yrotation Zrotation
									JOINT left_hand
									{
										OFFSET	-110.7	-3.89999	13.6
										CHANNELS 3  Xrotation Yrotation Zrotation
										JOINT left_ee
										{
											OFFSET	-80.8	-5.10001	12.1
											CHANNELS 3  Xrotation Yrotation Zrotation
											End Site
											{
												OFFSET	1	0	0
											}
										}
									}
								}
							}
						}
					}
					JOINT right_clavicle
					{
						OFFSET	43.2	22.4	-70.8
						CHANNELS 3  Xrotation Yrotation Zrotation
						JOINT right_shoulder
						{
							OFFSET	93.9	-5.79999	48.7
							CHANNELS 3  Xrotation Yrotation Zrotation
							JOINT right_elbow
							{
								OFFSET	291.4	-30.8	15.2
								CHANNELS 3  Xrotation Yrotation Zrotation
								JOINT right_lowarm_twist
								{
									OFFSET	110.7	-3.89999	13.6
									CHANNELS 3  Xrotation Yrotation Zrotation
									JOINT right_hand
									{
										OFFSET	110.7	-3.89999	13.6
										CHANNELS 3  Xrotation Yrotation Zrotation
										JOINT right_ee
										{
											OFFSET	80.8	-5.10001	12.1
											CHANNELS 3  Xrotation Yrotation Zrotation
											End Site
											{
												OFFSET	1	0	0
											}
										}
									}
								}
							}
						}
					}
				}
			}
		}
	}
	JOINT left_hip
	{
		OFFSET	-82.8	-127.5	0.300001
		CHANNELS 3  Xrotation Yrotation Zrotation
		JOINT left_knee
		{
			OFFSET	-28.2	-396.7	2.2
			CHANNELS 3  Xrotation Yrotation Zrotation
			JOINT left_ankle
			{
				OFFSET	-11.7	-411.3	35.4
				CHANNELS 3  Xrotation Yrotation Zrotation
				JOINT left_toes
				{
					OFFSET	0	-60	-88.6
					CHANNELS 3  Xrotation Yrotation Zrotation
					JOINT left_foot_ee
					{
						OFFSET	-22.5	-16.5	-42.2
						CHANNELS 3  Xrotation Yrotation Zrotation
						End Site
						{
							OFFSET	1	0	0
						}
					}
				}
			}
		}
	}
	JOINT right_hip
	{
		OFFSET	82.8	-127.5	0.300001
		CHANNELS 3  Xrotation Yrotation Zrotation
		JOINT right_knee
		{
			OFFSET	28.2	-396.7	2.2
			CHANNELS 3  Xrotation Yrotation Zrotation
			JOINT right_ankle
			{
				OFFSET	11.7	-411.3	35.4
				CHANNELS 3  Xrotation Yrotation Zrotation
				JOINT right_toes
				{
					OFFSET	0	-60	-88.6
					CHANNELS 3  Xrotation Yrotation Zrotation
					JOINT right_foot_ee
					{
						OFFSET	22.5	-16.5	-42.2
						CHANNELS 3  Xrotation Yrotation Zrotation
						End Site
						{
							OFFSET	1	0	0
						}
					}
				}
			}
		}
	}
}
MOTION
Frames: 15
Frame Time: 0.02
716.97278559 612.842 -1585.44443271 -177.992521787 66.8873662084 -168.938011777 1.52869 -1.11752 -5.43347 1.54477 -0.770049 -5.49332 1.6207 0.244623 -5.54148 1.57843 -0.632263 -5.51082 -8.34813 -5.89377 6.6573 -8.23349 -15.6784 5.28525 -0.0 0.0 -0.0 7.2813 -19.9928 13.3934 1.90981 -31.3522 71.5468 1.25672 -31.9027 0.359219 -33.1743 -2.25621 3.52859 -5.57477 18.0592 -27.6057 -0.0 0.0 -0.0 -9.36656 -21.022 11.3599 -5.77725 24.8273 -70.9676 0.984403 25.9954 -0.227231 33.8791 0.0697427 4.26487 -0.224859 -10.9783 -3.10305 0.0 0.0 0.0 11.6798 0.430056 -6.82735 -8.53519 0.256198 1.28363 20.3588 -10.4134 -2.90928 17.1205 -0.0 -0.0 -0.0 0.0 -0.0 12.3777 -39.7864 -3.54145 -46.8701 0.960632 -6.93185 7.51235 9.65207 1.13007 -37.0627 0.0 0.0 0.0 0.0 0.0 
709.909749636 610.125 -1579.50048441 -177.683477382 66.098346394 -169.184580092 1.53363 -1.09295 -5.51992 1.55027 -0.740045 -5.57803 1.62439 0.289396 -5.61933 1.58086 -0.600283 -5.59474 -8.38922 -5.54213 7.18026 -8.2524 -15.3862 5.87983 -0.0 0.0 -0.0 7.14909 -19.8749 13.1138 1.64549 -31.333 71.5399 1.33052 -33.3872 0.39903 -32.8141 -2.22135 3.49827 -5.80752 18.5623 -28.8449 -0.0 0.0 -0.0 -8.96882 -20.503 10.9428 -6.91244 26.9004 -71.3902 0.817492 22.0459 -0.159247 33.1429 0.0414319 4.17512 -0.262795 -9.90111 -2.41568 0.0 0.0 0.0 11.9338 1.94341 -7.30845 -8.60518 0.257504 1.29429 23.2957 -8.77084 -3.24981 15.198 -0.0 -0.0 -0.0 0.0 -0.0 11.4288 -43.3906 -4.04331 -45.4669 0.850677 -6.746 3.96091 12.659 0.614103 -37.1113 0.0 0.0 0.0 0.0 0.0 
681.845039917 608.759 -1579.93044551 -178.482183783 70.7705253143 -169.896273065 1.7994 -0.991677 -4.93065 1.81267 -0.676318 -4.98358 1.87218 0.22188 -5.02426 1.83743 -0.573381 -4.99644 -7.84747 -5.36249 8.3661 -7.63656 -15.926 7.19188 -0.0 0.0 -0.0 5.24598 -20.1502 8.95495 0.585989 -32.1186 74.0284 1.48955 -36.4206 0.490062 -25.9702 -1.59712 2.88226 -4.4126 16.023 -21.1301 -0.0 0.0 -0.0 -8.74305 -23.5552 9.44009 -12.2335 34.1289 -67.6144 0.943314 25.0458 -0.209528 30.04 -0.0651184 3.7932 -0.186335 -14.1188 -4.62591 0.0 0.0 0.0 8.34657 4.40739 -7.75858 -2.70013 0.101719 0.401859 31.7337 -16.5845 -4.40456 5.26242 -0.0 -0.0 -0.0 0.0 -0.0 10.9719 -46.4803 -2.12348 -37.6881 0.326274 -5.67189 -11.6633 10.827 -1.84898 -36.877 0.0 0.0 0.0 0.0 0.0 
669.807654903 610.03 -1583.47290813 179.986599138 72.5990056935 -169.675072686 1.59097 -1.00953 -4.84235 1.60374 -0.699736 -4.8966 1.66503 0.201142 -4.94214 1.63143 -0.580939 -4.91207 -6.50111 -3.14009 7.43344 -6.31257 -11.241 6.8837 -0.0 0.0 -0.0 5.55162 -21.8882 9.46242 0.290478 -30.924 74.8156 1.55487 -37.6021 0.529382 -21.3119 -1.21646 2.42271 -3.93734 16.5188 -17.6956 -0.0 0.0 -0.0 -7.99898 -23.5288 8.37627 -15.1402 33.0143 -65.9067 0.944177 25.0659 -0.209893 26.8007 -0.154106 3.38904 -0.0151572 -16.867 -6.77711 0.0 0.0 0.0 5.90969 8.61274 -5.17563 1.79162 -0.0779135 -0.263872 33.5292 -20.8619 -4.75314 -0.435336 0.0 0.0 -0.0 0.0 -0.0 10.5305 -45.6674 0.128971 -30.9331 -0.00719539 -4.6899 -21.8541 11.8226 -3.50915 -37.8122 0.0 0.0 0.0 0.0 0.0 
670.156137767 610.03 -1582.17334081 179.986747018 72.3985317692 -169.675227744 1.59097 -1.00953 -4.84235 1.60374 -0.699736 -4.8966 1.66503 0.201142 -4.94214 1.63143 -0.580939 -4.91207 -6.50111 -3.14009 7.43344 -6.31257 -11.241 6.8837 -0.0 0.0 -0.0 5.55162 -21.8882 9.46242 0.290478 -30.924 74.8156 1.55487 -37.6021 0.529382 -21.3119 -1.21646 2.42271 -3.93734 16.5188 -17.6956 -0.0 0.0 -0.0 -7.99898 -23.5288 8.37627 -15.1402 33.0143 -65.9067 0.944177 25.0659 -0.209893 26.8007 -0.154106 3.38904 -0.0151572 -16.867 -6.77711 0.0 0.0 0.0 5.90969 8.61274 -5.17563 1.79162 -0.0779135 -0.263872 33.5292 -20.8619 -4.75314 -0.435336 0.0 0.0 -0.0 0.0 -0.0 10.5305 -45.6674 0.128971 -30.9331 -0.00719539 -4.6899 -21.8541 11.8226 -3.50915 -37.8122 0.0 0.0 0.0 0.0 0.0 
670.14662458 610.03 -1582.20857768 179.986743052 72.4039699683 -169.675223583 1.59097 -1.00953 -4.84235 1.60374 -0.699736 -4.8966 1.66503 0.201142 -4.94214 1.63143 -0.580939 -4.91207 -6.50111 -3.14009 7.43344 -6.31257 -11.241 6.8837 -0.0 0.0 -0.0 5.55162 -21.8882 9.46242 0.290478 -30.924 74.8156 1.55487 -37.6021 0.529382 -21.3119 -1.21646 2.42271 -3.93734 16.5188 -17.6956 -0.0 0.0 -0.0 -7.99898 -23.5288 8.37627 -15.1402 33.0143 -65.9067 0.944177 25.0659 -0.209893 26.8007 -0.154106 3.38904 -0.0151572 -16.867 -6.77711 0.0 0.0 0.0 5.90969 8.61274 -5.17563 1.79162 -0.0779135 -0.263872 33.5292 -20.8619 -4.75314 -0.435336 0.0 0.0 -0.0 0.0 -0.0 10.5305 -45.6674 0.128971 -30.9331 -0.00719539 -4.6899 -21.8541 11.8226 -3.50915 -37.8122 0.0 0.0 0.0 0.0 0.0 
670.226450166 610.03 -1581.91331451 179.986776213 72.3583969123 -169.675258377 1.59097 -1.00953 -4.84235 1.60374 -0.699736 -4.8966 1.66503 0.201142 -4.94214 1.63143 -0.580939 -4.91207 -6.50111 -3.14009 7.43344 -6.31257 -11.241 6.8837 -0.0 0.0 -0.0 5.55162 -21.8882 9.46242 0.290478 -30.924 74.8156 1.55487 -37.6021 0.529382 -21.3119 -1.21646 2.42271 -3.93734 16.5188 -17.6956 -0.0 0.0 -0.0 -7.99898 -23.5288 8.37627 -15.1402 33.0143 -65.9067 0.944177 25.0659 -0.209893 26.8007 -0.154106 3.38904 -0.0151572 -16.867 -6.77711 0.0 0.0 0.0 5.90969 8.61274 -5.17563 1.79162 -0.0779135 -0.263872 33.5292 -20.8619 -4.75314 -0.435336 0.0 0.0 -0.0 0.0 -0.0 10.5305 -45.6674 0.128971 -30.9331 -0.00719539 -4.6899 -21.8541 11.8226 -3.50915 -37.8122 0.0 0.0 0.0 0.0 0.0 
670.477689415 610.03 -1580.9900368 179.986878838 72.215828033 -169.675366108 1.59097 -1.00953 -4.84235 1.60374 -0.699736 -4.8966 1.66503 0.201142 -4.94214 1.63143 -0.580939 -4.91207 -6.50111 -3.14009 7.43344 -6.31257 -11.241 6.8837 -0.0 0.0 -0.0 5.55162 -21.8882 9.46242 0.290478 -30.924 74.8156 1.55487 -37.6021 0.529382 -21.3119 -1.21646 2.42271 -3.93734 16.5188 -17.6956 -0.0 0.0 -0.0 -7.99898 -23.5288 8.37627 -15.1402 33.0143 -65.9067 0.944177 25.0659 -0.209893 26.8007 -0.154106 3.38904 -0.0151572 -16.867 -6.77711 0.0 0.0 0.0 5.90969 8.61274 -5.17563 1.79162 -0.0779135 -0.263872 33.5292 -20.8619 -4.75314 -0.435336 0.0 0.0 -0.0 0.0 -0.0 10.5305 -45.6674 0.128971 -30.9331 -0.00719539 -4.6899 -21.8541 11.8226 -3.50915 -37.8122 0.0 0.0 0.0 0.0 0.0 
670.402010365 610.03 -1581.26719672 179.9868482 72.2586361152 -169.675333936 1.59097 -1.00953 -4.84235 1.60374 -0.699736 -4.8966 1.66503 0.201142 -4.94214 1.63143 -0.580939 -4.91207 -6.50111 -3.14009 7.43344 -6.31257 -11.241 6.8837 -0.0 0.0 -0.0 5.55162 -21.8882 9.46242 0.290478 -30.924 74.8156 1.55487 -37.6021 0.529382 -21.3119 -1.21646 2.42271 -3.93734 16.5188 -17.6956 -0.0 0.0 -0.0 -7.99898 -23.5288 8.37627 -15.1402 33.0143 -65.9067 0.944177 25.0659 -0.209893 26.8007 -0.154106 3.38904 -0.0151572 -16.867 -6.77711 0.0 0.0 0.0 5.90969 8.61274 -5.17563 1.79162 -0.0779135 -0.263872 33.5292 -20.8619 -4.75314 -0.435336 0.0 0.0 -0.0 0.0 -0.0 10.5305 -45.6674 0.128971 -30.9331 -0.00719539 -4.6899 -21.8541 11.8226 -3.50915 -37.8122 0.0 0.0 0.0 0.0 0.0 
670.222520991 610.03 -1581.92782617 179.986774587 72.3606369759 -169.67525667 1.59097 -1.00953 -4.84235 1.60374 -0.699736 -4.8966 1.66503 0.201142 -4.94214 1.63143 -0.580939 -4.91207 -6.50111 -3.14009 7.43344 -6.31257 -11.241 6.8837 -0.0 0.0 -0.0 5.55162 -21.8882 9.46242 0.290478 -30.924 74.8156 1.55487 -37.6021 0.529382 -21.3119 -1.21646 2.42271 -3.93734 16.5188 -17.6956 -0.0 0.0 -0.0 -7.99898 -23.5288 8.37627 -15.1402 33.0143 -65.9067 0.944177 25.0659 -0.209893 26.8007 -0.154106 3.38904 -0.0151572 -16.867 -6.77711 0.0 0.0 0.0 5.90969 8.61274 -5.17563 1.79162 -0.0779135 -0.263872 33.5292 -20.8619 -4.75314 -0.435336 0.0 0.0 -0.0 0.0 -0.0 10.5305 -45.6674 0.128971 -30.9331 -0.00719539 -4.6899 -21.8541 11.8226 -3.50915 -37.8122 0.0 0.0 0.0 0.0 0.0 
669.912407242 610.03 -1583.08034854 179.986644157 72.5384684519 -169.675119873 1.59097 -1.00953 -4.84235 1.60374 -0.699736 -4.8966 1.66503 0.201142 -4.94214 1.63143 -0.580939 -4.91207 -6.50111 -3.14009 7.43344 -6.31257 -11.241 6.8837 -0.0 0.0 -0.0 5.55162 -21.8882 9.46242 0.290478 -30.924 74.8156 1.55487 -37.6021 0.529382 -21.3119 -1.21646 2.42271 -3.93734 16.5188 -17.6956 -0.0 0.0 -0.0 -7.99898 -23.5288 8.37627 -15.1402 33.0143 -65.9067 0.944177 25.0659 -0.209893 26.8007 -0.154106 3.38904 -0.0151572 -16.867 -6.77711 0.0 0.0 0.0 5.90969 8.61274 -5.17563 1.79162 -0.0779135 -0.263872 33.5292 -20.8619 -4.75314 -0.435336 0.0 0.0 -0.0 0.0 -0.0 10.5305 -45.6674 0.128971 -30.9331 -0.00719539 -4.6899 -21.8541 11.8226 -3.50915 -37.8122 0.0 0.0 0.0 0.0 0.0 
668.944038701 610.03 -1586.77505859 179.986207982 73.1075695477 -169.67466334 1.59097 -1.00953 -4.84235 1.60374 -0.699736 -4.8966 1.66503 0.201142 -4.94214 1.63143 -0.580939 -4.91207 -6.50111 -3.14009 7.43344 -6.31257 -11.241 6.8837 -0.0 0.0 -0.0 5.55162 -21.8882 9.46242 0.290478 -30.924 74.8156 1.55487 -37.6021 0.529382 -21.3119 -1.21646 2.42271 -3.93734 16.5188 -17.6956 -0.0 0.0 -0.0 -7.99898 -23.5288 8.37627 -15.1402 33.0143 -65.9067 0.944177 25.0659 -0.209893 26.8007 -0.154106 3.38904 -0.0151572 -16.867 -6.77711 0.0 0.0 0.0 5.90969 8.61274 -5.17563 1.79162 -0.0779135 -0.263872 33.5292 -20.8619 -4.75314 -0.435336 0.0 0.0 -0.0 0.0 -0.0 10.5305 -45.6674 0.128971 -30.9331 -0.00719539 -4.6899 -21.8541 11.8226 -3.50915 -37.8122 0.0 0.0 0.0 0.0 0.0 
667.533005135 610.03 -1592.44851521 179.985479367 73.978663879 -169.673903623 1.59097 -1.00953 -4.84235 1.60374 -0.699736 -4.8966 1.66503 0.201142 -4.94214 1.63143 -0.580939 -4.91207 -6.50111 -3.14009 7.43344 -6.31257 -11.241 6.8837 -0.0 0.0 -0.0 5.55162 -21.8882 9.46242 0.290478 -30.924 74.8156 1.55487 -37.6021 0.529382 -21.3119 -1.21646 2.42271 -3.93734 16.5188 -17.6956 -0.0 0.0 -0.0 -7.99898 -23.5288 8.37627 -15.1402 33.0143 -65.9067 0.944177 25.0659 -0.209893 26.8007 -0.154106 3.38904 -0.0151572 -16.867 -6.77711 0.0 0.0 0.0 5.90969 8.61274 -5.17563 1.79162 -0.0779135 -0.263872 33.5292 -20.8619 -4.75314 -0.435336 0.0 0.0 -0.0 0.0 -0.0 10.5305 -45.6674 0.128971 -30.9331 -0.00719539 -4.6899 -21.8541 11.8226 -3.50915 -37.8122 0.0 0.0 0.0 0.0 0.0 
665.945063681 610.03 -1599.32373824 179.98448536 75.0300416093 -169.672872165 1.59097 -1.00953 -4.84235 1.60374 -0.699736 -4.8966 1.66503 0.201142 -4.94214 1.63143 -0.580939 -4.91207 -6.50111 -3.14009 7.43344 -6.31257 -11.241 6.8837 -0.0 0.0 -0.0 5.55162 -21.8882 9.46242 0.290478 -30.924 74.8156 1.55487 -37.6021 0.529382 -21.3119 -1.21646 2.42271 -3.93734 16.5188 -17.6956 -0.0 0.0 -0.0 -7.99898 -23.5288 8.37627 -15.1402 33.0143 -65.9067 0.944177 25.0659 -0.209893 26.8007 -0.154106 3.38904 -0.0151572 -16.867 -6.77711 0.0 0.0 0.0 5.90969 8.61274 -5.17563 1.79162 -0.0779135 -0.263872 33.5292 -20.8619 -4.75314 -0.435336 0.0 0.0 -0.0 0.0 -0.0 10.5305 -45.6674 0.128971 -30.9331 -0.00719539 -4.6899 -21.8541 11.8226 -3.50915 -37.8122 0.0 0.0 0.0 0.0 0.0 
617.194475962 621.727 -1543.27701748 176.713988759 64.6504987235 -170.551189106 1.12624 -0.707855 -3.81171 1.13421 -0.464056 -3.84895 1.16729 0.27661 -3.86692 1.14658 -0.337101 -3.86212 -7.80528 -2.49623 3.73217 -7.76415 -7.30396 3.17341 -0.0 0.0 -0.0 4.47983 -22.1748 7.11113 -6.60797 -22.6516 82.6609 1.40434 -34.8232 0.440428 -17.8687 -0.959873 2.06416 2.06868 -18.2666 6.02183 -0.0 0.0 -0.0 -7.35479 -23.7639 7.37645 -13.283 34.0278 -68.7539 0.968694 25.6341 -0.22039 10.7897 -0.253414 1.35296 0.0316894 -27.8892 -11.1328 0.0 0.0 0.0 -3.63831 12.0231 -0.666475 5.71142 -0.276965 -0.832083 14.0878 -16.4569 -2.15969 -1.98767 0.0 0.0 -0.0 0.0 -0.0 2.1764 -39.2159 -3.20805 -7.95381 -0.244846 -1.19514 -20.7911 27.8574 -3.892 -29.9061 0.0 0.0 0.0 0.0 0.0 
